<?xml version="1.0" encoding="UTF-8" standalone="no"?>
<!DOCTYPE svg PUBLIC "-//W3C//DTD SVG 20010904//EN"
              "http://www.w3.org/TR/2001/REC-SVG-20010904/DTD/svg10.dtd">

<svg xmlns="http://www.w3.org/2000/svg"
     width="8.88889in" height="8.88889in"
     viewBox="0 0 800 800">
  <path id="Selection"
        fill="white" stroke="white" stroke-width="1"
        d="M 361.00,148.51
           C 384.02,148.06 400.96,163.80 401.00,187.00
             401.00,187.00 401.00,255.00 401.00,255.00
             401.00,255.00 401.00,613.00 401.00,613.00
             400.96,636.91 382.67,653.12 359.00,651.15
             352.33,650.60 347.86,649.59 342.00,646.07
             342.00,646.07 308.00,618.80 308.00,618.80
             308.00,618.80 233.00,557.25 233.00,557.25
             233.00,557.25 207.00,536.00 207.00,536.00
             198.92,529.48 197.68,526.02 187.00,526.00
             187.00,526.00 88.00,526.00 88.00,526.00
             65.72,525.97 49.04,510.62 49.00,488.00
             49.00,488.00 49.00,312.00 49.00,312.00
             49.03,290.24 65.24,274.03 87.00,274.00
             87.00,274.00 187.00,274.00 187.00,274.00
             197.68,273.98 198.92,270.52 207.00,264.00
             207.00,264.00 232.00,243.42 232.00,243.42
             232.00,243.42 312.00,177.92 312.00,177.92
             312.00,177.92 328.00,164.75 328.00,164.75
             340.93,154.07 343.99,150.39 361.00,148.51 Z" />
</svg>
