<?xml version="1.0" encoding="UTF-8" standalone="no"?>
<!DOCTYPE svg PUBLIC "-//W3C//DTD SVG 20010904//EN"
              "http://www.w3.org/TR/2001/REC-SVG-20010904/DTD/svg10.dtd">

<svg xmlns="http://www.w3.org/2000/svg"
     width="8.88889in" height="8.88889in"
     viewBox="0 0 800 800">
  <path id="Selection"
        fill="white" stroke="white" stroke-width="1"
        d="M 355.00,149.23
           C 355.00,149.23 361.00,149.23 361.00,149.23
             366.52,148.94 369.64,148.99 375.00,150.75
             388.46,155.16 398.02,166.03 400.91,180.00
             400.91,180.00 400.91,203.00 400.91,203.00
             400.91,203.00 400.91,237.00 400.91,237.00
             400.91,237.00 400.91,546.00 400.91,546.00
             400.91,546.00 400.91,613.00 400.91,613.00
             400.96,636.24 383.72,651.26 361.00,651.00
             342.68,650.79 328.39,635.31 315.00,624.25
             315.00,624.25 230.00,554.75 230.00,554.75
             230.00,554.75 207.00,535.80 207.00,535.80
             198.78,529.16 197.79,526.02 187.00,526.00
             187.00,526.00 88.00,526.00 88.00,526.00
             65.72,525.97 49.04,510.62 49.00,488.00
             49.00,488.00 49.00,312.00 49.00,312.00
             49.03,290.24 65.24,274.03 87.00,274.00
             87.00,274.00 187.00,274.00 187.00,274.00
             197.71,273.98 200.00,269.86 208.00,263.25
             208.00,263.25 232.00,243.61 232.00,243.61
             232.00,243.61 312.00,178.20 312.00,178.20
             324.95,167.73 338.64,153.11 355.00,149.23 Z
           M 570.00,199.47
           C 589.62,196.73 595.48,207.09 604.00,222.00
             614.79,240.89 624.14,260.59 631.68,281.00
             654.14,341.78 657.05,421.11 642.12,484.00
             638.30,500.06 632.97,515.71 626.80,531.00
             620.14,547.50 611.27,564.35 602.77,580.00
             597.04,590.54 592.25,599.39 579.00,600.83
             561.95,602.68 549.00,592.56 549.00,575.00
             549.00,572.11 548.98,569.82 549.79,567.00
             549.79,567.00 562.75,542.00 562.75,542.00
             571.73,524.17 580.50,506.18 586.28,487.00
             595.18,457.46 599.05,426.78 599.00,396.00
             599.00,396.00 598.04,383.00 598.04,383.00
             596.97,358.40 593.32,334.60 585.98,311.00
             578.20,286.02 566.14,263.68 553.42,241.00
             543.85,223.92 549.88,204.25 570.00,199.47 Z
           M 496.00,274.46
           C 504.30,273.32 512.60,275.47 518.82,281.33
             522.46,284.76 525.03,290.50 527.24,295.00
             531.33,303.30 536.82,317.16 539.66,326.00
             558.83,385.77 553.79,447.16 527.69,504.00
             523.95,512.15 520.53,519.50 512.00,523.60
             507.40,525.81 503.01,526.11 498.00,525.99
             482.04,525.60 473.65,512.94 474.01,498.00
             474.22,489.55 483.01,474.25 486.31,465.00
             492.79,446.80 496.74,430.29 498.09,411.00
             498.09,411.00 499.00,401.00 499.00,401.00
             499.00,401.00 498.09,388.00 498.09,388.00
             496.86,370.38 493.25,353.67 487.31,337.00
             483.11,325.20 473.57,310.63 474.04,299.00
             474.59,285.32 483.16,277.32 496.00,274.46 Z" />
</svg>
